<svg width="14" height="14" viewBox="0 0 14 14" fill="none" xmlns="http://www.w3.org/2000/svg">
<path d="M12.8571 6.85714C12.8571 8.44844 12.225 9.97456 11.0998 11.0998C9.97456 12.225 8.44844 12.8571 6.85714 12.8571C5.26584 12.8571 3.73972 12.225 2.6145 11.0998C1.48928 9.97456 0.857143 8.44844 0.857143 6.85714C0.857143 5.26584 1.48928 3.73972 2.6145 2.6145C3.73972 1.48928 5.26584 0.857143 6.85714 0.857143C8.44844 0.857143 9.97456 1.48928 11.0998 2.6145C12.225 3.73972 12.8571 5.26584 12.8571 6.85714ZM0 6.85714C0 8.67577 0.722447 10.4199 2.00841 11.7059C3.29437 12.9918 5.03852 13.7143 6.85714 13.7143C8.67577 13.7143 10.4199 12.9918 11.7059 11.7059C12.9918 10.4199 13.7143 8.67577 13.7143 6.85714C13.7143 5.03852 12.9918 3.29437 11.7059 2.00841C10.4199 0.722447 8.67577 0 6.85714 0C5.03852 0 3.29437 0.722447 2.00841 2.00841C0.722447 3.29437 0 5.03852 0 6.85714ZM6.42857 3V6.85714C6.42857 6.99911 6.50089 7.13304 6.61875 7.21339L9.19018 8.92768C9.38839 9.05893 9.65357 9.00536 9.78482 8.80982C9.91607 8.61429 9.8625 8.34643 9.66696 8.21518L7.28571 6.62679V3C7.28571 2.76429 7.09286 2.57143 6.85714 2.57143C6.62143 2.57143 6.42857 2.76429 6.42857 3Z" fill="white"/>
</svg>
